Genre:Action | Crime | Drama
Language:English
http://www.imdb.com/title/tt1433108/
Source: CAMRIP RUS/Audio.ImagineThx.
Subtitles:Romana


Format : AVI
Format/Info : Audio Video Interleave
File size : 704 MiB
Duration : 1h 33mn
Overall bit rate : 1 051 Kbps


Video
Codec ID/Hint : XviD
Duration : 1h 33mn
Bit rate : 912 Kbps
Width : 688 pixels
Height : 352 pixels
Display aspect ratio : 1.955
Frame rate : 29.970 fps
Color space : YUV
Chroma subsampling : 4:2:0
Bit depth : 8 bits
Scan type : Progressive
Bits/(Pixel*Frame) : 0.126
Stream size : 610 MiB (87%)
Writing library : XviD 1.2.0SMP (UTC 2006-01-08)

Audio
ID : 1
Format : MPEG Audio
Format version : Version 1
Format profile : Layer 3
Codec ID : 55
Codec ID/Hint : MP3
Duration : 1h 33mn
Bit rate mode : Constant
Bit rate : 128 Kbps
Channel(s) : 2 channels
Sampling rate : 44.1 KHz
Stream size : 85.6 MiB (12%)
Alignment : Split accross interleaves
Interleave, duration : 33 ms (1.00 video frame)
Interleave, preload duration : 500 ms



Plot:
An ex-con sets out to avenge his brother's death after they were double-crossed during a heist years ago. During his campaign, however, he's tracked by a veteran cop and an egocentric hit man. 
http://www.rapidhdd.com/images/100777vlcsnap-2010-12-20-14h13m39s175.png 
http://www.rapidhdd.com/images/983846vlcsnap-2010-12-20-13h05m42s109.png 
http://www.rapidhdd.com/images/768800vlcsnap-2010-12-20-14h13m22s11.png 
http://rapidhdd.com/images/20960vlcsnap-2010-12-20-18h06m52s242.png